<svg width="64" height="64" viewBox="0 0 64 64" fill="none" xmlns="http://www.w3.org/2000/svg">
<path d="M55.9357 54.1787L54.7837 23.4638H57.5997C58.3437 23.4638 58.9837 22.9178 59.1597 22.1499C59.3277 21.3821 58.9837 20.5886 58.3197 20.2303L32.7198 6.57919C32.2638 6.3403 31.7358 6.3403 31.2798 6.57919L5.91994 20.2388C5.25594 20.5971 4.91194 21.3906 5.08794 22.1585C5.25594 22.9263 5.90394 23.4724 6.64793 23.4724H9.23992L8.08793 54.1873H3.19995V57.6H60.7997V54.1873H55.9357V54.1787ZM52.8637 54.1787H41.0078L39.8558 23.4638H54.0157L52.8637 54.1787ZM37.9358 54.1787H26.0798L24.9278 23.4638H39.0878L37.9358 54.1787ZM31.9998 10.0176L50.8157 20.0511H13.3679L32.0078 10.0176H31.9998ZM9.99992 23.4638H24.1598L23.0079 54.1787H11.1519L9.99992 23.4638Z" fill="#8F40FF"/>
</svg>
