<svg width="347" height="87" viewBox="0 0 347 87" fill="none" xmlns="http://www.w3.org/2000/svg">
<path d="M71.0296 28.6831C66.1114 25.7658 31.8391 5.41536 26.1012 2.01395C19.7631 2.32375 14.0962 7.26129 12.6117 13.4122C11.7985 16.4716 11.7339 19.6471 11.6629 22.7774C11.5467 28.9155 10.9207 63.7364 10.7787 71.4041C9.93317 71.559 9.0812 71.6429 8.22278 71.6494C8.09369 64.2205 7.46762 25.7916 7.35145 19.2986C7.11909 12.5603 10.0364 6.05434 16.381 3.12409C19.3564 1.70414 22.8353 1.22007 26.0947 2.01395C22.8676 1.10389 19.3242 1.45888 16.2326 2.80137C9.58463 5.58318 6.28649 12.3086 6.28649 19.2921C6.17031 25.8948 5.53779 63.291 5.38934 71.4299C4.52446 71.2815 3.66604 71.062 2.83344 70.7651C2.76244 64.6206 2.31064 22.7064 2.259 17.8786C1.61357 5.23464 14.69 -3.3883 26.0947 2.0075C14.6706 -4.02727 0.993963 4.27295 0.638977 17.1815C0.574434 22.9001 0.0839048 62.7618 0.00645322 69.4291L0.0580888 69.4678C0.0580888 69.4678 0.0709983 69.4807 0.0968155 69.4936C4.98272 72.895 11.8759 73.1339 17.02 70.0745C26.9144 64.5755 52.8543 50.1695 63.2328 44.4058C64.4655 45.1287 65.3498 45.6902 65.6402 45.9484C65.6402 45.9484 65.6467 45.9484 65.6531 45.9548C59.67 49.5628 29.8511 67.5122 24.6812 70.6296C19.492 73.8826 13.625 76.8709 7.40953 74.7539C4.47928 73.8309 1.8072 71.9785 0.00645322 69.4291C3.44659 74.7603 10.5528 77.2001 16.6198 75.4122C19.6792 74.5861 22.461 73.0564 25.204 71.5526C30.574 68.5836 61.0448 51.712 67.7572 48.0008C68.3123 48.6527 68.8093 49.3562 69.2482 50.092C62.8778 53.9194 29.9092 73.676 24.3456 77.0193C18.6271 80.595 11.5338 81.3179 5.82178 77.284C3.10452 75.4187 0.942328 72.6498 0 69.4291C0.82615 72.6821 2.90443 75.5671 5.61524 77.5744C11.3467 81.944 18.8207 81.4341 24.8684 77.9423C30.645 74.741 63.3489 56.5915 70.468 52.6479C70.7714 53.4741 71.0102 54.326 71.1716 55.1909C65.8855 58.3212 29.8124 79.6721 25.6623 82.1311C15.0321 89.0114 1.02623 81.9956 0 69.4226C0.490527 82.3312 14.5157 90.0247 25.8688 83.8803C30.8515 81.0791 65.6209 61.5742 71.4362 58.3083V58.2438C71.4362 58.2438 71.4362 58.2244 71.4362 58.1986C71.9396 52.2671 68.6996 46.1743 63.478 43.2569C53.7708 37.4351 28.3279 22.1772 18.143 16.0714C18.1559 14.645 18.1947 13.593 18.2786 13.2122C18.2786 13.2122 18.2786 13.2057 18.2786 13.1992C24.3973 16.5813 54.8486 33.427 60.1347 36.3508C65.5434 39.2165 71.0683 42.8051 72.3398 49.2465C73.0046 52.2413 72.7399 55.4878 71.4297 58.3148C74.3277 52.6737 72.8884 45.29 68.2994 40.9334C66.0533 38.7002 63.3425 37.0543 60.664 35.4278C55.4102 32.2588 25.5655 14.3094 18.995 10.3464C19.2854 9.53966 19.6404 8.75869 20.06 8.00999C26.5594 11.6115 60.1541 30.2838 65.8338 33.4335C71.7912 36.6025 75.9606 42.3856 75.3281 49.3433C75.07 52.6286 73.7533 55.888 71.4297 58.3148C73.8307 55.9719 75.2958 52.7318 75.6767 49.382C76.5932 42.2371 72.4172 36.0152 66.3696 32.5234C60.7091 29.1155 28.6377 9.86883 21.6606 5.67999C22.2222 5.00229 22.8418 4.36977 23.513 3.79533C28.8701 6.80304 65.395 27.3729 69.6031 29.7352C80.8724 35.4988 81.8082 51.1376 71.4297 58.3148C82.3633 51.441 82.0148 35.4408 71.0166 28.6831H71.0296ZM60.3993 42.7793C57.7466 44.3671 23.8551 64.7626 18.9885 67.6413C18.9369 64.5496 18.2205 25.0042 18.1624 19.3437C20.8667 20.8411 55.4747 39.9975 60.3993 42.7793ZM17.0393 16.4264C16.8522 27.7472 16.3616 57.4112 16.1616 69.2806C14.9223 69.9842 13.9929 70.4747 13.6186 70.5973C13.6186 70.5973 13.6121 70.5973 13.6057 70.5973C13.4766 63.6073 12.8376 28.8122 12.7279 22.7774C12.5084 16.6588 12.8505 10.0818 17.788 5.75744C20.0535 3.68561 22.9902 2.29148 26.0947 2.0075L26.0366 2.03331C26.0366 2.03331 26.0173 2.03977 25.9915 2.05913C20.6021 4.58921 16.949 10.4433 17.0329 16.4264H17.0393Z" fill="#8F40FF"/>
<path d="M97.6699 33.4219H106.77V66.5955H97.6699V33.4219Z" fill="#FFFDF7"/>
<path d="M129.233 21.416C134.48 21.416 138.546 22.4487 141.432 24.5141C144.317 26.5795 145.756 29.5033 145.756 33.2919C145.756 36.0866 144.981 38.3456 143.432 40.0689C141.883 41.7922 139.689 42.9088 136.849 43.4252C140.205 43.8576 142.793 44.929 144.626 46.6523C146.453 48.3756 147.369 50.7831 147.369 53.8811C147.369 57.8376 145.866 60.9486 142.851 63.2076C139.837 65.4666 135.577 66.5961 130.072 66.5961H112.064V21.416H129.233ZM121.746 40.0044H129.491C131.556 40.0044 133.17 39.5074 134.332 38.5199C135.494 37.5324 136.074 36.1964 136.074 34.5182C136.074 32.8401 135.494 31.5041 134.332 30.5166C133.17 29.5291 131.556 29.0321 129.491 29.0321H121.746V40.0044ZM121.746 58.9155H130.136C132.46 58.9155 134.254 58.4185 135.526 57.431C136.797 56.4435 137.43 55.0623 137.43 53.3003C137.43 51.5382 136.784 50.0215 135.494 49.0081C134.203 47.9948 132.415 47.4914 130.136 47.4914H121.746V58.9155Z" fill="#FFFDF7"/>
<path d="M184.221 33.4225V66.5961H176.154L175.379 61.9492C172.753 65.2602 169.313 66.9188 165.053 66.9188C162.129 66.9188 159.502 66.2283 157.179 64.8536C154.856 63.4789 153.035 61.4975 151.725 58.9159C150.415 56.3343 149.757 53.346 149.757 49.9448C149.757 46.5435 150.415 43.6198 151.725 41.0382C153.035 38.4566 154.868 36.4688 157.211 35.0683C159.554 33.6677 162.194 32.9707 165.117 32.9707C167.357 32.9707 169.332 33.4031 171.055 34.2615C172.778 35.1199 174.198 36.3074 175.315 37.8112L176.218 33.4225H184.221ZM173.056 56.9474C174.521 55.2048 175.25 52.9136 175.25 50.0739C175.25 47.2341 174.521 44.8655 173.056 43.1035C171.591 41.3416 169.635 40.4574 167.183 40.4574C164.73 40.4574 162.762 41.3416 161.277 43.1035C159.793 44.8655 159.051 47.1889 159.051 50.0739C159.051 52.9588 159.793 55.2048 161.277 56.9474C162.762 58.69 164.73 59.5613 167.183 59.5613C169.635 59.5613 171.591 58.69 173.056 56.9474Z" fill="#FFFDF7"/>
<path d="M217.395 36.6475C219.893 39.0548 221.138 43.0369 221.138 48.5874V66.5941H212.038V49.1037C212.038 43.379 209.799 40.5199 205.326 40.5199C202.957 40.5199 201.131 41.3137 199.84 42.9079C198.549 44.502 197.904 46.7351 197.904 49.62V66.5941H188.804V33.4204H196.742L197.581 37.551C198.743 36.1311 200.143 35.021 201.776 34.2272C203.409 33.4334 205.436 33.0332 207.843 33.0332C211.715 33.0332 214.897 34.2401 217.395 36.6475Z" fill="#FFFDF7"/>
<path d="M225.852 21.416H255.671V29.7421H235.534V40.3271H252.057V48.2659H235.534V66.5961H225.852V21.416Z" fill="#FFFDF7"/>
<path d="M258.511 33.4219H267.611V66.5955H258.511V33.4219Z" fill="#FFFDF7"/>
<path d="M292.395 33.4219V41.683H288.781C286.2 41.683 284.309 42.4575 283.102 44.0065C281.895 45.5554 281.295 47.6659 281.295 50.3314V66.5955H272.194V33.4219H280.455L281.295 38.3915C282.282 36.7586 283.508 35.5194 284.973 34.6804C286.438 33.8414 288.394 33.4219 290.846 33.4219H292.395Z" fill="#FFFDF7"/>
<path d="M301.496 55.5599C301.625 57.0249 302.335 58.206 303.626 59.1096C304.917 60.0131 306.575 60.4649 308.595 60.4649C310.616 60.4649 312.061 60.1551 313.178 59.5291C314.294 58.903 314.856 58.0124 314.856 56.8507C314.856 55.9923 314.598 55.3469 314.081 54.9145C313.565 54.482 312.836 54.1723 311.887 53.9786C310.938 53.785 309.389 53.5591 307.24 53.301C304.316 52.9137 301.883 52.4168 299.947 51.8165C298.011 51.2163 296.462 50.2676 295.3 48.9768C294.138 47.686 293.558 45.9627 293.558 43.8135C293.558 41.6644 294.151 39.7604 295.332 38.1017C296.514 36.4431 298.185 35.1652 300.334 34.2616C302.483 33.358 304.962 32.9062 307.756 32.9062C312.274 32.9514 315.921 33.9195 318.696 35.8106C321.471 37.7016 322.969 40.3284 323.182 43.6845H314.533C314.404 42.4388 313.746 41.4127 312.565 40.6188C311.384 39.825 309.867 39.4248 308.015 39.4248C306.291 39.4248 304.904 39.7475 303.852 40.3929C302.8 41.0383 302.271 41.8967 302.271 42.9745C302.271 43.749 302.548 44.3299 303.11 44.7171C303.671 45.1044 304.4 45.3883 305.304 45.5561C306.207 45.7304 307.711 45.924 309.822 46.137C314.294 46.6533 317.728 47.6085 320.116 49.009C322.504 50.4096 323.698 52.804 323.698 56.2053C323.698 58.3545 323.065 60.2519 321.794 61.8848C320.522 63.5177 318.761 64.7762 316.502 65.6604C314.243 66.5446 311.629 66.9835 308.66 66.9835C304.058 66.9835 300.315 65.9637 297.43 63.9178C294.545 61.8719 293.022 59.0902 292.848 55.5599H301.496Z" fill="#FFFDF7"/>
<path d="M329.962 41.0991H324.477V33.4188H329.962V24.125H339.063V33.4188H346.614V41.0991H339.063V55.6206C339.063 56.7823 339.308 57.6214 339.805 58.1377C340.302 58.654 341.128 58.9122 342.29 58.9122H347.001V66.5924H339.45C333.125 66.5924 329.962 63.43 329.962 57.105V41.0991Z" fill="#FFFDF7"/>
<path d="M105.995 21.8994C106.982 22.8675 107.479 24.0809 107.479 25.5459C107.479 27.011 106.982 28.2373 105.995 29.2247C105.007 30.2122 103.755 30.7092 102.251 30.7092C100.747 30.7092 99.489 30.2122 98.4757 29.2247C97.4624 28.2373 96.959 27.011 96.959 25.5459C96.959 24.0809 97.4624 22.8675 98.4757 21.8994C99.489 20.9313 100.747 20.4473 102.251 20.4473C103.755 20.4473 105.007 20.9313 105.995 21.8994Z" fill="#FFFDF7"/>
<path d="M266.833 21.8994C267.821 22.8675 268.318 24.0809 268.318 25.5459C268.318 27.011 267.821 28.2373 266.833 29.2247C265.846 30.2122 264.594 30.7092 263.09 30.7092C261.586 30.7092 260.328 30.2122 259.315 29.2247C258.301 28.2373 257.798 27.011 257.798 25.5459C257.798 24.0809 258.301 22.8675 259.315 21.8994C260.328 20.9313 261.586 20.4473 263.09 20.4473C264.594 20.4473 265.846 20.9313 266.833 21.8994Z" fill="#FFFDF7"/>
</svg>
