<svg width="181" height="45" viewBox="0 0 181 45" fill="none" xmlns="http://www.w3.org/2000/svg">
<path d="M36.9887 14.9367C34.4275 13.4175 16.5802 2.82005 13.5922 1.04876C10.2916 1.2101 7.34059 3.78132 6.56755 6.98443C6.14405 8.57758 6.11044 10.2312 6.07347 11.8614C6.01297 15.0577 5.68694 33.1908 5.613 37.1837C5.1727 37.2644 4.72904 37.3081 4.28201 37.3114C4.21479 33.4428 3.88877 13.431 3.82827 10.0497C3.70727 6.54077 5.22648 3.1528 8.53042 1.62687C10.0799 0.887433 11.8915 0.635352 13.5888 1.04876C11.9083 0.574852 10.0631 0.759712 8.45311 1.45882C4.9912 2.90744 3.27369 6.40968 3.27369 10.0464C3.21319 13.4848 2.8838 32.9588 2.8065 37.1972C2.35612 37.1199 1.90909 37.0056 1.47551 36.851C1.43854 33.6512 1.20327 11.8244 1.17638 9.31029C0.840269 2.72594 7.64981 -1.76446 13.5888 1.0454C7.63973 -2.0972 0.517607 2.22514 0.332747 8.9473C0.299136 11.9252 0.0436934 32.6832 0.00336051 36.1552L0.0302498 36.1754C0.0302498 36.1754 0.0369724 36.1821 0.0504167 36.1888C2.59475 37.9601 6.18438 38.0845 8.86316 36.4913C14.0157 33.6277 27.5239 26.1258 32.9285 23.1243C33.5704 23.5008 34.0309 23.7932 34.1822 23.9276C34.1822 23.9276 34.1855 23.9276 34.1889 23.931C31.0732 25.8098 15.545 35.157 12.8528 36.7804C10.1505 38.4744 7.09524 40.0305 3.85852 38.9281C2.33259 38.4475 0.941101 37.4828 0.00336051 36.1552C1.79482 38.9315 5.49536 40.202 8.65477 39.2709C10.2479 38.8407 11.6966 38.0441 13.125 37.261C15.9214 35.7149 31.7891 26.9291 35.2846 24.9964C35.5737 25.3359 35.8325 25.7023 36.061 26.0854C32.7436 28.0786 15.5752 38.3668 12.678 40.1078C9.70007 41.9699 6.00625 42.3463 3.03169 40.2457C1.61668 39.2743 0.490717 37.8324 0 36.1552C0.430218 37.8492 1.51249 39.3516 2.92414 40.3969C5.90878 42.6724 9.8009 42.4068 12.9502 40.5885C15.9584 38.9214 32.989 29.47 36.6963 27.4164C36.8542 27.8466 36.9786 28.2903 37.0626 28.7407C34.3099 30.3708 15.5248 41.4893 13.3636 42.7698C7.82795 46.3527 0.534411 42.6992 0 36.1519C0.255442 42.874 7.55906 46.8804 13.4712 43.6807C16.066 42.222 34.1721 32.0648 37.2004 30.3641V30.3305C37.2004 30.3305 37.2004 30.3204 37.2004 30.3069C37.4626 27.2181 35.7753 24.0453 33.0562 22.5261C28.0011 19.4944 14.7518 11.5488 9.44799 8.36919C9.45471 7.62639 9.47488 7.07854 9.51857 6.88024C9.51857 6.88024 9.51857 6.87687 9.51857 6.87351C12.7049 8.63472 28.5624 17.4071 31.3152 18.9297C34.1317 20.422 37.0088 22.2908 37.671 25.6451C38.0172 27.2047 37.8793 28.8953 37.197 30.3674C38.7062 27.4299 37.9567 23.5848 35.5669 21.3161C34.3973 20.1531 32.9856 19.2961 31.5908 18.4491C28.8549 16.7988 13.3132 7.45162 9.89165 5.38792C10.0429 4.96778 10.2278 4.56109 10.4462 4.1712C13.8308 6.04669 31.3252 15.7703 34.283 17.4105C37.3853 19.0608 39.5565 22.0723 39.2271 25.6955C39.0927 27.4063 38.407 29.1037 37.197 30.3674C38.4474 29.1474 39.2103 27.4601 39.4086 25.7157C39.8859 21.995 37.7113 18.7549 34.562 16.9366C31.6143 15.1619 14.9131 5.1392 11.2798 2.95786C11.5722 2.60494 11.8949 2.27556 12.2444 1.97642C15.0341 3.54268 34.0544 14.2544 36.2459 15.4846C42.1143 18.486 42.6017 26.6299 37.197 30.3674C42.8907 26.7879 42.7092 18.4558 36.9819 14.9367H36.9887ZM31.453 22.2773C30.0716 23.1042 12.4225 33.7252 9.88829 35.2242C9.8614 33.6143 9.48832 13.0209 9.45807 10.0733C10.8664 10.853 28.8885 20.8287 31.453 22.2773ZM8.87325 8.55405C8.77577 14.4494 8.52033 29.8969 8.41614 36.0779C7.77081 36.4443 7.28682 36.6997 7.09188 36.7636C7.09188 36.7636 7.08851 36.7636 7.08515 36.7636C7.01793 33.1235 6.68518 15.004 6.62804 11.8614C6.51377 8.67505 6.69191 5.25011 9.26313 2.99819C10.4429 1.91928 11.9722 1.19329 13.5888 1.0454L13.5586 1.05885C13.5586 1.05885 13.5485 1.06221 13.5351 1.07229C10.7286 2.38983 8.82619 5.43833 8.86989 8.55405H8.87325Z" fill="#8F40FF"/>
<path d="M50.8613 17.4043H55.6002V34.6795H50.8613V17.4043Z" fill="#FFFDF7"/>
<path d="M67.2979 11.1523C70.0304 11.1523 72.1479 11.6901 73.6503 12.7657C75.1527 13.8412 75.9022 15.3638 75.9022 17.3367C75.9022 18.7921 75.4989 19.9685 74.6923 20.8659C73.8856 21.7633 72.7428 22.3447 71.264 22.6136C73.0117 22.8388 74.3595 23.3968 75.3141 24.2942C76.2652 25.1916 76.7425 26.4452 76.7425 28.0586C76.7425 30.1189 75.9594 31.7389 74.3898 32.9153C72.8201 34.0917 70.6018 34.6799 67.7348 34.6799H58.3574V11.1523H67.2979ZM63.399 20.8322H67.4323C68.5079 20.8322 69.3481 20.5734 69.9531 20.0592C70.5581 19.545 70.8606 18.8492 70.8606 17.9753C70.8606 17.1015 70.5581 16.4057 69.9531 15.8915C69.3481 15.3772 68.5079 15.1184 67.4323 15.1184H63.399V20.8322ZM63.399 30.6802H67.7684C68.9784 30.6802 69.9128 30.4214 70.5749 29.9072C71.2371 29.3929 71.5665 28.6736 71.5665 27.7561C71.5665 26.8385 71.2304 26.0486 70.5581 25.521C69.8859 24.9933 68.9549 24.7311 67.7684 24.7311H63.399V30.6802Z" fill="#FFFDF7"/>
<path d="M95.9327 17.4032V34.6784H91.7316L91.3283 32.2586C89.9604 33.9827 88.169 34.8465 85.9508 34.8465C84.4283 34.8465 83.0604 34.4869 81.8504 33.771C80.6405 33.0551 79.6927 32.0233 79.0104 30.6789C78.3282 29.3345 77.9854 27.7784 77.9854 26.0072C77.9854 24.236 78.3282 22.7135 79.0104 21.3691C79.6927 20.0248 80.6472 18.9896 81.8672 18.2603C83.0873 17.5309 84.4619 17.168 85.9844 17.168C87.1506 17.168 88.1791 17.3932 89.0764 17.8402C89.9738 18.2872 90.7132 18.9056 91.2946 19.6887L91.7652 17.4032H95.9327ZM90.1183 29.6538C90.8813 28.7464 91.261 27.5533 91.261 26.0744C91.261 24.5956 90.8813 23.3622 90.1183 22.4446C89.3554 21.5271 88.337 21.0666 87.0599 21.0666C85.7827 21.0666 84.7576 21.5271 83.9846 22.4446C83.2116 23.3622 82.8251 24.5721 82.8251 26.0744C82.8251 27.5768 83.2116 28.7464 83.9846 29.6538C84.7576 30.5613 85.7827 31.015 87.0599 31.015C88.337 31.015 89.3554 30.5613 90.1183 29.6538Z" fill="#FFFDF7"/>
<path d="M113.208 19.0852C114.509 20.3389 115.158 22.4126 115.158 25.303V34.68H110.419V25.5718C110.419 22.5907 109.252 21.1018 106.923 21.1018C105.69 21.1018 104.739 21.5152 104.067 22.3454C103.394 23.1755 103.058 24.3384 103.058 25.8407V34.68H98.3193V17.4048H102.453L102.89 19.5558C103.495 18.8164 104.224 18.2383 105.075 17.8249C105.925 17.4115 106.98 17.2031 108.234 17.2031C110.251 17.2031 111.908 17.8316 113.208 19.0852Z" fill="#FFFDF7"/>
<path d="M117.612 11.1523H133.14V15.4881H122.654V21.0003H131.258V25.1344H122.654V34.6799H117.612V11.1523Z" fill="#FFFDF7"/>
<path d="M134.619 17.4043H139.358V34.6795H134.619V17.4043Z" fill="#FFFDF7"/>
<path d="M152.265 17.4043V21.7063H150.383C149.038 21.7063 148.054 22.1096 147.425 22.9162C146.797 23.7229 146.484 24.8219 146.484 26.2099V34.6795H141.745V17.4043H146.047L146.484 19.9922C146.998 19.1419 147.637 18.4966 148.4 18.0597C149.163 17.6228 150.181 17.4043 151.458 17.4043H152.265Z" fill="#FFFDF7"/>
<path d="M157.004 28.9336C157.071 29.6965 157.441 30.3116 158.113 30.7821C158.785 31.2526 159.649 31.4879 160.701 31.4879C161.753 31.4879 162.505 31.3266 163.087 31.0006C163.668 30.6746 163.961 30.2107 163.961 29.6058C163.961 29.1588 163.826 28.8227 163.557 28.5975C163.289 28.3723 162.909 28.211 162.415 28.1102C161.921 28.0093 161.114 27.8917 159.995 27.7573C158.472 27.5556 157.205 27.2968 156.197 26.9843C155.189 26.6717 154.382 26.1776 153.777 25.5054C153.172 24.8333 152.87 23.9359 152.87 22.8167C152.87 21.6975 153.179 20.706 153.794 19.8423C154.409 18.9785 155.279 18.313 156.399 17.8425C157.518 17.372 158.808 17.1367 160.264 17.1367C162.616 17.1602 164.515 17.6644 165.961 18.6491C167.406 19.6339 168.185 21.0018 168.296 22.7495H163.793C163.726 22.1008 163.383 21.5664 162.768 21.153C162.153 20.7396 161.363 20.5313 160.398 20.5313C159.501 20.5313 158.778 20.6993 158.23 21.0354C157.683 21.3715 157.407 21.8185 157.407 22.3798C157.407 22.7831 157.551 23.0856 157.844 23.2872C158.136 23.4889 158.516 23.6368 158.987 23.7241C159.457 23.8149 160.24 23.9157 161.339 24.0266C163.668 24.2955 165.456 24.7929 166.7 25.5222C167.943 26.2516 168.565 27.4985 168.565 29.2697C168.565 30.3889 168.236 31.377 167.574 32.2273C166.912 33.0776 165.994 33.733 164.818 34.1935C163.642 34.6539 162.28 34.8824 160.734 34.8824C158.338 34.8824 156.389 34.3514 154.886 33.286C153.384 32.2206 152.591 30.772 152.5 28.9336H157.004Z" fill="#FFFDF7"/>
<path d="M171.827 21.4018H168.971V17.4022H171.827V12.5625H176.566V17.4022H180.499V21.4018H176.566V28.9638C176.566 29.5688 176.694 30.0057 176.953 30.2746C177.212 30.5435 177.642 30.6779 178.247 30.6779H180.7V34.6774H176.768C173.474 34.6774 171.827 33.0306 171.827 29.7369V21.4018Z" fill="#FFFDF7"/>
<path d="M55.1965 11.4046C55.7107 11.9088 55.9695 12.5406 55.9695 13.3036C55.9695 14.0665 55.7107 14.7051 55.1965 15.2193C54.6823 15.7335 54.0303 15.9923 53.2472 15.9923C52.4641 15.9923 51.8087 15.7335 51.281 15.2193C50.7534 14.7051 50.4912 14.0665 50.4912 13.3036C50.4912 12.5406 50.7534 11.9088 51.281 11.4046C51.8087 10.9005 52.4641 10.6484 53.2472 10.6484C54.0303 10.6484 54.6823 10.9005 55.1965 11.4046Z" fill="#FFFDF7"/>
<path d="M138.953 11.4046C139.468 11.9088 139.726 12.5406 139.726 13.3036C139.726 14.0665 139.468 14.7051 138.953 15.2193C138.439 15.7335 137.787 15.9923 137.004 15.9923C136.221 15.9923 135.566 15.7335 135.038 15.2193C134.51 14.7051 134.248 14.0665 134.248 13.3036C134.248 12.5406 134.51 11.9088 135.038 11.4046C135.566 10.9005 136.221 10.6484 137.004 10.6484C137.787 10.6484 138.439 10.9005 138.953 11.4046Z" fill="#FFFDF7"/>
</svg>
