<svg width="80" height="80" viewBox="0 0 80 80" fill="none" xmlns="http://www.w3.org/2000/svg">
<path fill-rule="evenodd" clip-rule="evenodd" d="M65.9049 38.687C66.7404 41.149 67.5702 43.5939 68.4067 45.985L68.4163 45.9753C68.6954 46.7901 68.2527 47.6728 67.4444 47.925C67.4444 47.925 62.8929 49.3703 61.5072 49.8068C61.457 51.4664 61.4135 53.3174 61.3692 55.202C61.2946 58.3733 61.2178 61.6397 61.1031 64.2498C61.1127 64.793 60.6797 65.2489 60.1312 65.2295L52.4523 64.9676C50.5326 64.9094 48.6128 64.8185 46.6931 64.7275C46.0532 64.6972 45.4133 64.6669 44.7735 64.6378V63.8618C48.9112 63.6775 54.704 63.435 59.1304 63.2992C59.1147 62.8358 59.0986 62.3728 59.0825 61.9101C59.0197 60.1062 58.957 58.306 58.9188 56.4997L58.7263 48.7592C58.7071 48.1287 59.1112 47.5952 59.6789 47.4206C59.6789 47.4206 63.1046 46.1887 64.9329 45.5292C63.8586 42.759 62.8 39.8951 61.7374 37.0205C60.1731 32.7888 58.6003 28.5337 56.9557 24.5193C50.7106 11.1918 32.9569 7.63192 22.0833 17.4772C13.8078 24.6163 12.0276 37.8372 18.0707 47.0035C19.2157 48.8756 20.6688 50.5537 22.3046 52.0474C22.5259 52.222 22.6414 52.4936 22.6414 52.7652C22.5712 57.3364 22.3743 63.4838 22.21 68.6142C22.1717 69.8088 22.1353 70.9484 22.1025 72H21.3327C21.2977 70.8298 21.2575 69.6608 21.2173 68.4922C21.1472 66.4546 21.0772 64.4182 21.0344 62.3778L20.8035 53.2017C19.0714 51.7758 17.4741 50.156 16.1557 48.3033C7.04311 35.7032 11.8641 17.3512 25.7688 10.6098C38.4322 4.25638 54.425 9.94048 60.3044 22.9189C62.2819 28.0115 64.1069 33.3889 65.9049 38.687ZM54.0882 37.4395C54.2229 37.2455 54.5404 37.3231 54.5789 37.5462C54.8195 40.4561 51.1725 42.4737 48.6033 42.4737C46.034 42.4834 42.387 40.4561 42.618 37.5559C42.7142 37.2358 43.0606 37.294 43.1953 37.5559C44.5233 38.8945 46.8231 39.4958 48.6033 39.5637C50.422 39.4764 52.8084 38.8945 54.0882 37.4395Z" fill="#8F40FF"/>
</svg>
