<svg width="64" height="64" viewBox="0 0 64 64" fill="none" xmlns="http://www.w3.org/2000/svg">
<path fill-rule="evenodd" clip-rule="evenodd" d="M52.3157 16.7392C52.5383 16.7476 52.7606 16.7559 52.9822 16.7696H52.9668C53.7211 16.8159 54.437 17.3712 54.3985 18.397C54.3785 18.6228 54.358 18.9179 54.3332 19.2761C54.1676 21.6695 53.807 26.8778 52.0663 33.0432C50.1651 39.784 46.4551 45.7998 41.5444 50.6587C38.7811 53.4352 35.6638 55.8493 32.1231 57.5846H32.1H32.0923H32.0616C32.0385 57.5923 32.0231 57.6 32 57.6C31.9884 57.6 31.9788 57.5962 31.9692 57.5923C31.9596 57.5885 31.9499 57.5846 31.9384 57.5846H31.9076H31.8999H31.8768C28.3362 55.8493 25.2265 53.4352 22.4556 50.6587C17.5449 45.7998 13.8349 39.784 11.9337 33.0432C10.1929 26.8778 9.83239 21.6695 9.66671 19.2761C9.64192 18.9179 9.6215 18.6228 9.60146 18.397C9.56298 17.3712 10.2788 16.8236 11.0254 16.7773C11.2483 16.7636 11.4712 16.7553 11.6937 16.7471C12.2242 16.7274 12.7524 16.7077 13.273 16.6153C16.7213 16.0138 23.8411 13.9468 30.9147 6.85121C31.5151 6.24963 32.4926 6.24963 33.093 6.85121C40.1743 13.9468 47.2864 16.0061 50.7347 16.6076C51.2596 16.6998 51.7884 16.7196 52.3157 16.7392ZM32.0077 56.9367C39.3353 52.6871 44.9927 45.6224 48.0792 37.771C48.8335 36.0588 51.3043 28.9786 51.3043 19.8161C48.033 19.4227 40.1204 17.6874 32.0077 10.0828C23.8949 17.6874 15.99 19.4227 12.7111 19.8161C12.7111 28.9863 15.1818 36.0665 15.9362 37.771C19.0227 45.6147 24.68 52.6794 32.0077 56.9367ZM34.6709 32.2179C36.4797 28.8244 38.6426 25.6853 41.5136 23.0631V23.0708L43.3686 25.5311C40.5976 27.5595 38.2192 30.3052 36.2642 33.1666C34.2552 36.1513 32.6927 39.4369 31.5459 42.8613C31.4997 43.031 31.315 43.1389 31.1456 43.0772C31.0379 43.0464 30.9609 42.9538 30.9455 42.8459C29.9372 39.9305 27.0893 38.1952 24.2259 37.663L25.0957 34.7014C27.859 35.9508 30.4375 38.3263 31.2765 41.2725C32.0539 38.1412 33.1699 35.087 34.6709 32.2179Z" fill="#8F40FF"/>
</svg>
