<svg width="64" height="64" viewBox="0 0 64 64" fill="none" xmlns="http://www.w3.org/2000/svg">
<path fill-rule="evenodd" clip-rule="evenodd" d="M57.6 12.3033C57.6 11.4765 56.9224 10.8 56.0941 10.8L7.90591 10.8527C7.07014 10.8527 6.40002 11.5291 6.40002 12.3559C6.41116 12.4115 6.54118 21.1787 6.6729 30.0601C6.80843 39.1981 6.94575 48.457 6.9572 48.4722C6.96473 48.9833 7.39391 49.3892 7.90591 49.3742L38.0236 48.7278V48.1265L8.86967 47.5026L9.3892 13.8592L54.7163 13.8066L56.0941 30.3953L57.6 12.3033ZM13.9294 19.8723C14.7611 19.8723 15.4353 19.1993 15.4353 18.369C15.4353 17.5388 14.7611 16.8658 13.9294 16.8658C13.0978 16.8658 12.4236 17.5388 12.4236 18.369C12.4236 19.1993 13.0978 19.8723 13.9294 19.8723ZM21.4589 18.369C21.4589 19.1993 20.7847 19.8723 19.953 19.8723C19.1213 19.8723 18.4471 19.1993 18.4471 18.369C18.4471 17.5388 19.1213 16.8658 19.953 16.8658C20.7847 16.8658 21.4589 17.5388 21.4589 18.369ZM25.9765 19.8723C26.8082 19.8723 27.4824 19.1993 27.4824 18.369C27.4824 17.5388 26.8082 16.8658 25.9765 16.8658C25.1448 16.8658 24.4706 17.5388 24.4706 18.369C24.4706 19.1993 25.1448 19.8723 25.9765 19.8723ZM48.1205 29.3355C52.0961 33.2966 55.9436 33.4018 56.1017 33.4018H56.0942C56.9224 33.4169 57.5925 34.0858 57.5925 34.9051C57.5925 48.2993 48.0904 52.8693 47.6838 53.0572C47.4881 53.1549 47.2622 53.2 47.0514 53.2C46.8405 53.2 46.6222 53.1474 46.4189 53.0572C46.0123 52.8693 36.5102 48.2993 36.5102 34.9051C36.5102 34.0783 37.1878 33.4018 38.0161 33.4018C38.1667 33.4018 42.0142 33.3041 45.9897 29.3355C46.577 28.7492 47.5332 28.7492 48.1205 29.3355ZM47.0551 49.9732C45.2297 48.8426 40.0487 44.8885 39.5596 36.228C41.2462 35.9048 44.0998 34.9953 47.0514 32.4473C50.0029 34.9953 52.8565 35.9048 54.5431 36.228C54.0616 44.9336 48.9031 48.8427 47.0551 49.9732Z" fill="#8F40FF"/>
</svg>
