<svg width="64" height="64" viewBox="0 0 64 64" fill="none" xmlns="http://www.w3.org/2000/svg">
<path fill-rule="evenodd" clip-rule="evenodd" d="M48.4201 15.5395C48.4201 19.4742 45.2177 22.679 41.286 22.679C37.3543 22.679 34.1518 19.4742 34.1518 15.5395C34.1518 11.6049 37.3543 8.40002 41.286 8.40002C45.2177 8.40002 48.4201 11.6049 48.4201 15.5395ZM46.0421 15.5395C46.0421 12.9138 43.9098 10.7799 41.286 10.7799C38.6622 10.7799 36.5299 12.9138 36.5299 15.5395C36.5299 18.1653 38.6622 20.2992 41.286 20.2992C43.9098 20.2992 46.0421 18.1653 46.0421 15.5395ZM29.2293 19.5059C29.2293 24.9716 24.7823 29.4219 19.3208 29.4219C13.8592 29.4219 9.41223 24.9716 9.41223 19.5059C9.41223 14.0402 13.8592 9.58994 19.3208 9.58994C24.7823 9.58994 29.2293 14.0402 29.2293 19.5059ZM26.0586 19.5059C26.0586 15.7854 23.0384 12.7631 19.3208 12.7631C15.6031 12.7631 12.583 15.7854 12.583 19.5059C12.583 23.2264 15.6031 26.2488 19.3208 26.2488C23.0384 26.2488 26.0586 23.2264 26.0586 19.5059ZM54.8884 32.4601C48.8878 23.5199 35.4439 23.3295 29.2451 31.4051C29.8 31.6272 30.347 31.8652 30.8701 32.1349C30.9115 32.1021 30.9528 32.069 30.9943 32.0358L30.9943 32.0357C31.1438 31.916 31.2954 31.7945 31.4567 31.6827C37.9092 26.8041 47.6433 27.8353 52.8195 34.0546C54.9439 36.4503 56.2518 39.5282 56.8305 42.9076H57.4646C57.964 39.3854 57.0762 35.5142 54.8963 32.4601H54.8884ZM6.85978 37.6958L6.40795 37.0453H6.40002C16.2927 27.5656 33.5098 31.2464 39.6768 43.2487C41.7695 47.0485 42.5146 51.4988 41.9043 55.6H41.1116C40.0732 49.7456 37.5445 44.629 33.1848 40.8054C26.0585 34.3719 15.4762 33.4359 6.85978 37.6958Z" fill="#8F40FF"/>
</svg>
