<svg width="64" height="64" viewBox="0 0 64 64" fill="none" xmlns="http://www.w3.org/2000/svg">
<path d="M32 0C14.3515 0 0 14.3515 0 32C0 49.6485 14.3515 64 32 64C49.6485 64 64 49.6485 64 32C64 14.3515 49.6485 0 32 0ZM35.5297 60.4412C34.6667 61.4788 33.3673 62.0606 32.0194 62.0606C32.0194 62.0606 32.0097 62.0606 32 62.0606C32 62.0606 31.9903 62.0606 31.9806 62.0606C30.6327 62.0606 29.3333 61.4788 28.4703 60.4412C27.6073 59.4036 27.0061 58.2788 26.463 57.1539C24.9697 53.7115 23.8739 49.503 23.1661 44.9455C29.0327 45.6921 35.1127 45.6145 40.8436 44.8679C40.1358 49.4642 39.0303 53.6921 37.537 57.1539C36.9939 58.2691 36.3539 59.4521 35.5297 60.4412ZM22.6812 41.1636C22.0509 35.1903 22.0606 28.8097 22.6812 22.8364C28.7612 22.1964 35.2485 22.1964 41.3285 22.8364C41.9588 28.8097 41.9491 35.1903 41.3285 41.1636C35.2485 41.8036 28.7612 41.8036 22.6812 41.1636ZM1.93939 32C1.93939 32 1.93939 31.9903 1.93939 31.9806C1.93939 30.6521 2.52121 29.3721 3.54909 28.5285C4.57697 27.6848 5.7503 27.0642 6.87515 26.5309C10.2691 25.0861 14.4 24.0194 18.8897 23.3212C18.1624 29.0812 18.24 35.0448 18.9673 40.6788C14.4485 39.9806 10.2885 38.9139 6.87515 37.4594C5.7503 36.9261 4.54788 36.2861 3.54909 35.4618C2.5503 34.6376 1.93939 33.3382 1.93939 32.0097C1.93939 32.0097 1.93939 32 1.93939 31.9903V32ZM28.4703 3.55879C29.3333 2.52121 30.6327 1.93939 31.9806 1.93939C31.9806 1.93939 31.9903 1.93939 32 1.93939C32 1.93939 32.0097 1.93939 32.0194 1.93939C33.3673 1.93939 34.6667 2.52121 35.5297 3.55879C36.3927 4.59636 36.9939 5.72121 37.537 6.84606C39.0303 10.2885 40.1261 14.497 40.8339 19.0545C34.9673 18.3079 28.8873 18.3855 23.1564 19.1321C23.8642 14.5358 24.9697 10.2982 26.463 6.84606C27.0061 5.73091 27.6461 4.54788 28.4703 3.55879ZM45.0327 23.3212C49.5515 24.0194 53.7115 25.0861 57.1249 26.5406C58.2497 27.0739 59.4521 27.7139 60.4412 28.5285C61.4303 29.343 62.0509 30.6521 62.0509 31.9903C62.0509 31.9903 62.0509 32 62.0509 32.0097C62.0509 32.0097 62.0509 32.0194 62.0509 32.0291C62.0509 33.3576 61.4691 34.6376 60.4412 35.4812C59.4133 36.3248 58.2497 36.9358 57.1249 37.4691C53.7309 38.9139 49.5903 39.9806 45.1103 40.6788C45.8376 34.9188 45.76 28.9455 45.0327 23.3212ZM61.7115 27.4424C60.7127 26.2691 59.423 25.2994 58.2206 24.5236C54.1382 22.177 49.4255 20.5867 44.4606 19.6364C44.1115 17.7358 43.6848 15.8933 43.1903 14.1285C42.0655 10.56 40.0291 5.07152 36.6352 2.30788C49.5321 4.31515 59.743 14.5455 61.7115 27.4521V27.4424ZM27.3745 2.29818C26.2109 3.27758 25.2412 4.53818 24.4558 5.73091C22.0412 9.85212 20.4218 14.6521 19.4618 19.7042C17.6388 20.0436 15.8642 20.4509 14.1673 20.9261C10.5697 22.0606 5.05212 24.0485 2.28848 27.4424C4.25697 14.5261 14.4776 4.29576 27.3745 2.29818ZM2.28848 36.5576C3.28727 37.7309 4.57697 38.7103 5.77939 39.4861C9.86182 41.8327 14.5745 43.423 19.5394 44.3733C19.8885 46.2739 20.3152 48.1164 20.8097 49.8812C21.9345 53.4497 23.9709 58.9382 27.3648 61.7018C14.4679 59.6945 4.25697 49.4642 2.28848 36.5576ZM36.6352 61.7018C37.7988 60.7224 38.7685 59.4618 39.5539 58.2691C41.9685 54.1479 43.5879 49.3479 44.5479 44.2958C46.3709 43.9564 48.1455 43.5491 49.8521 43.0739C53.4497 41.9394 58.9673 39.9515 61.7309 36.5673C59.7527 49.4739 49.5418 59.7042 36.6449 61.7018H36.6352Z" fill="#8F40FF"/>
</svg>
